<svg width="144" height="144" viewBox="0 0 144 144" fill="none" xmlns="http://www.w3.org/2000/svg">
<g clip-path="url(#clip0_2007_25172)">
<path d="M102.532 108.355L98.8724 97.3757C98.245 95.494 97.1233 93.8156 95.6247 92.5162C94.1262 91.2167 92.3058 90.344 90.3543 89.9893L79.7909 88.0673V87.2485C81.6291 86.1815 83.2288 84.7542 84.5028 83.0645H87.6941C90.3085 83.0645 92.436 80.937 92.436 78.3226V59.3548C92.436 48.0248 83.2177 38.8065 71.8876 38.8065C60.5576 38.8065 51.3392 48.0248 51.3392 59.3548V70.4194C51.3392 73.4668 53.5063 76.0164 56.3799 76.6107C57.2667 81.1535 60.1055 84.9976 63.9844 87.2485V88.0673L53.4194 89.9893C51.468 90.344 49.6479 91.2168 48.1496 92.5163C46.6513 93.8157 45.5299 95.4941 44.9028 97.3757L44.2706 99.274L38.8869 93.8904C38.2705 93.2739 38.2705 92.2702 38.8869 91.6537L45.1305 85.4118L33.4116 73.6929L26.3556 80.7489C24.2659 82.8385 23.1152 85.6173 23.1152 88.5731C23.1152 91.5289 24.2659 94.3061 26.3556 96.3957L47.718 117.758C49.8076 119.848 52.5864 121 55.5422 121C58.498 121 61.2752 119.848 63.3158 117.806L71.0151 110.751L68.6141 108.355H102.532ZM89.2747 78.3226C89.2747 79.1951 88.565 79.9032 87.6941 79.9032H86.3648C86.8282 78.8469 87.1738 77.7428 87.3953 76.6107C88.0718 76.4701 88.6946 76.2014 89.2747 75.8631V78.3226ZM87.6941 73.1412V67.6975C88.6346 68.246 89.2747 69.2544 89.2747 70.4194C89.2747 71.5843 88.6346 72.5927 87.6941 73.1412ZM56.0812 73.1412C55.1407 72.5927 54.5005 71.5843 54.5005 70.4194C54.5005 69.2544 55.1407 68.246 56.0812 67.6975V73.1412ZM56.0812 62.5161V64.3212C55.5269 64.4661 54.995 64.6863 54.5005 64.9756V59.3548C54.5005 49.7682 62.301 41.9677 71.8876 41.9677C81.4742 41.9677 89.2747 49.7682 89.2747 59.3548V64.9756C88.7805 64.6856 88.2486 64.4654 87.6941 64.3212V62.5161H86.1134C81.4395 62.5161 77.0453 60.6952 73.7386 57.3901L71.8876 55.5392L70.0367 57.3901C66.73 60.6952 62.3358 62.5161 57.6618 62.5161H56.0812ZM59.2425 73.5806V65.6174C63.9891 65.2601 68.4149 63.3017 71.8876 59.9997C75.3603 63.3017 79.7861 65.2617 84.5328 65.6174V73.5806C84.5328 75.8852 83.9037 78.0412 82.8225 79.9032H71.8876V83.0645H80.2239C77.9952 85.0261 75.0821 86.2258 71.8876 86.2258C64.9154 86.2258 59.2425 80.5529 59.2425 73.5806ZM76.6296 88.6584V88.7327L71.8876 93.4746L67.1457 88.7327V88.6584C68.6441 89.1295 70.2358 89.3871 71.8876 89.3871C73.5394 89.3871 75.1311 89.1295 76.6296 88.6584ZM47.8998 98.3746C48.3479 97.0305 49.149 95.8314 50.2192 94.903C51.2895 93.9745 52.5897 93.3507 53.9837 93.0969L65.0324 91.0895L71.8876 97.9447L78.7413 91.091L89.7884 93.0985C91.1825 93.352 92.4828 93.9757 93.5531 94.9042C94.6235 95.8327 95.4245 97.0319 95.8723 98.3762L98.1469 105.194H65.4528L59.2962 99.0369L52.4552 105.225C51.8593 105.824 50.8176 105.824 50.2201 105.225L46.768 101.773L47.8998 98.3746ZM33.41 78.1629L40.6588 85.4118L38.9422 87.1284L31.6934 79.8795L33.41 78.1629ZM61.1266 115.526C59.6345 117.015 57.6492 117.839 55.539 117.839C53.4288 117.839 51.4436 117.015 49.9498 115.523L28.5874 94.1622C27.0953 92.6701 26.2734 90.6848 26.2734 88.5746C26.2734 86.4629 27.0953 84.4776 28.5874 82.9855L29.4568 82.1161L36.7056 89.365L36.6487 89.4219C34.8009 91.2712 34.8009 94.2792 36.6487 96.1285L47.9835 107.463C48.8798 108.358 50.07 108.853 51.3377 108.853C52.6053 108.853 53.7956 108.36 54.6333 107.519L54.7518 107.413L62.0339 114.695L61.1266 115.526ZM64.3669 112.555L57.1007 105.288L59.1887 103.401L66.4423 110.655L64.3669 112.555ZM116.146 23H94.0167C91.4023 23 89.2747 25.1275 89.2747 27.7419V40.3871C89.2747 43.0015 91.4023 45.129 94.0167 45.129H98.2386L96.6042 54.6619L111.857 45.129H116.146C118.76 45.129 120.888 43.0015 120.888 40.3871V27.7419C120.888 25.1275 118.76 23 116.146 23ZM117.726 40.3871C117.726 41.258 117.017 41.9677 116.146 41.9677H110.95L100.911 48.2413L101.988 41.9677H94.0167C93.1457 41.9677 92.436 41.258 92.436 40.3871V27.7419C92.436 26.871 93.1457 26.1613 94.0167 26.1613H116.146C117.017 26.1613 117.726 26.871 117.726 27.7419V40.3871Z" fill="#F6F6F6"/>
<path d="M95.5969 29.3228H114.565V32.4841H95.5969V29.3228ZM95.5969 35.6454H108.242V38.8067H95.5969V35.6454ZM111.403 35.6454H114.565V38.8067H111.403V35.6454ZM71.8872 27.7422C51.2345 27.7422 33.4444 42.0281 28.8194 61.9553L25.8241 56.962L23.1133 58.5885L28.6692 67.8463L37.9271 62.2904L36.3006 59.5795L32.0171 62.1497C36.4966 43.9201 52.8895 30.9035 71.8872 30.9035C76.0396 30.9035 80.1366 31.5199 84.0645 32.737L85.0003 29.718C80.7689 28.4061 76.3573 27.7422 71.8872 27.7422ZM120.119 57.9989L110.861 52.4429L105.307 61.7024L108.018 63.3288L110.784 58.7181C112.24 62.9779 112.984 67.4338 112.984 72.0003C112.984 81.4004 109.728 90.5902 103.818 97.8754L106.273 99.867C112.639 92.0207 116.145 82.1227 116.145 72.0003C116.145 67.1651 115.366 62.4437 113.847 57.923L118.493 60.7097L120.119 57.9989Z" fill="#F6F6F6"/>
</g>
<circle cx="72" cy="72" r="71.5" stroke="#E81337"/>
<defs>
<clipPath id="clip0_2007_25172">
<rect width="98" height="98" fill="white" transform="translate(23 23)"/>
</clipPath>
</defs>
</svg>
