<svg width="145" height="144" viewBox="0 0 145 144" fill="none" xmlns="http://www.w3.org/2000/svg">
<circle cx="72.5" cy="72" r="71.5" stroke="#E81337"/>
<path d="M90.4156 88.1543L79.6203 91.6762C79.0844 89.8387 77.7062 88.384 75.9453 87.6184L63.3125 82.4121C58.1063 80.2684 52.0578 81.7996 48.5359 86.1637H45.0141V84.8621C45.0141 84.0965 44.4016 83.484 43.6359 83.484H33.3C32.5344 83.484 31.9219 84.0965 31.9219 84.8621V107.448C31.9219 108.214 32.5344 108.75 33.2234 108.826H43.5594C44.325 108.826 44.8609 108.214 44.9375 107.525V106.223H48.9188L64.2313 111.2C67.1406 112.118 70.2797 112.042 73.1125 110.97L95.3922 102.471C99.2969 101.017 101.364 96.6527 99.8328 92.6715C98.6078 88.8434 94.3203 86.7762 90.4156 88.1543ZM42.3344 106.146H34.6781V86.2402H42.3344V106.146ZM47.8469 103.543H45.0141V88.8434H47.8469V103.543ZM94.55 99.9449L72.2703 108.443C69.9734 109.286 67.4469 109.362 65.15 108.596L50.5266 103.85V87.9246C53.3594 84.4027 58.1063 83.1777 62.3172 84.8621L74.95 90.0684C76.8641 90.9105 77.7828 93.0543 76.9406 94.9684C76.175 96.8824 73.9547 97.8012 72.1172 97.0355L60.9391 92.5184C60.25 92.2121 59.4844 92.5184 59.1781 93.2074C58.8719 93.8965 59.1781 94.7387 59.9437 95.0449L71.1219 99.5621C74.4141 100.864 78.1656 99.3324 79.5437 95.9637C79.7734 95.4277 79.9266 94.8918 79.9266 94.3559L91.3344 90.6043C93.9375 89.7621 96.6937 91.1402 97.5359 93.7434C98.3016 96.3465 97 99.0262 94.55 99.9449ZM111.547 34.4074H101.211C100.445 34.4074 99.9094 35.0199 99.8328 35.7855V37.0871H95.8516L80.5391 32.1105C77.6297 31.1918 74.4906 31.2684 71.6578 32.3402L61.3219 36.2449L56.8812 31.8043C56.3453 31.2684 55.5031 31.2684 54.9672 31.8043L45.3969 41.4512L40.7266 46.1215C39.8078 47.0402 40.7266 48.1121 40.7266 48.0355L71.6578 78.9668C72.1938 79.5027 73.0359 79.5027 73.5719 78.9668L87.8125 64.7262C88.3484 64.1902 88.3484 63.348 87.8125 62.8121L86.8172 61.8168C90.4922 61.6637 93.9375 59.9793 96.3109 57.1465H99.8328V58.448C99.8328 59.2137 100.445 59.7496 101.134 59.8262H111.547C112.312 59.8262 112.848 59.2137 112.925 58.448V35.7855C112.848 35.0199 112.236 34.4074 111.547 34.4074ZM55.8859 34.7137L58.5656 37.3934C56.8812 38.3887 54.8906 38.3887 53.2062 37.3934L55.8859 34.7137ZM46.2391 49.7965L43.5594 47.1168L46.2391 44.4371C47.1578 46.0449 47.1578 48.1121 46.2391 49.7965ZM72.5766 76.134L69.8969 73.4543C71.5812 72.459 73.6484 72.459 75.2562 73.4543L72.5766 76.134ZM77.2469 71.5402C74.4906 69.5496 70.7391 69.5496 67.9828 71.5402L48.1531 51.7105C50.1438 48.9543 50.1438 45.2027 48.1531 42.4465L51.2922 39.3074C54.2781 41.4512 58.4125 41.0684 60.5563 39.3074L66.6047 45.2793C65.9922 45.9684 65.5328 46.734 65.2266 47.4996C64.9203 48.2652 64.7672 49.184 64.8438 50.0262C61.8578 49.6434 59.1016 51.8637 58.7953 54.8496C58.4125 58.0652 60.9391 60.9746 64.2313 60.9746C67.0641 60.9746 69.3609 58.8309 69.6672 56.0746L79.6969 60.209C78.3188 62.8887 78.5484 66.0277 80.3094 68.4777L77.2469 71.5402ZM66.2219 57.4527C65.15 58.5246 63.3891 58.5246 62.2406 57.4527C61.1687 56.3809 61.1687 54.6199 62.2406 53.4715C63.2359 52.4762 64.9203 52.3996 65.9922 53.3184C67.3703 54.4668 67.2938 56.3043 66.2219 57.4527ZM82.3 66.4871C81.3047 64.8793 81.3047 62.8121 82.3 61.1277H82.3766L84.9797 63.7309L82.3 66.4871ZM94.2438 55.309C91.6406 58.5246 87.3531 59.9027 83.4484 58.6777C83.4484 58.6777 74.5672 55.0793 69.8203 53.0887C68.0594 52.3996 66.9875 50.3324 67.6766 48.3418C68.3656 46.3512 70.6625 45.3559 72.6531 46.1215L83.8313 50.6387C84.5203 50.9449 85.2859 50.5621 85.5922 49.873C85.8984 49.184 85.5156 48.4184 84.8266 48.1121L73.725 43.6715C72.1172 43.059 70.3562 43.059 68.7484 43.748L63.3125 38.3887L72.5 34.8668C74.7969 34.0246 77.3234 33.948 79.6203 34.6371L94.2438 39.384V55.309ZM99.8328 54.4668H97V39.7668H99.8328V54.4668ZM110.169 57.0699H102.512V37.1637H110.169V57.0699Z" fill="#F6F6F6"/>
</svg>
