<svg width="145" height="144" viewBox="0 0 145 144" fill="none" xmlns="http://www.w3.org/2000/svg">
<circle cx="72.5" cy="72" r="71.5" stroke="#E81337"/>
<g clip-path="url(#clip0_2008_25180)">
<path d="M78.459 110.451H81.5272V113.328H78.459V110.451ZM84.5959 110.451H87.6643V113.328H84.5959V110.451ZM90.7329 110.451H93.8011V113.328H90.7329V110.451Z" fill="#F6F6F6"/>
<path d="M99.7467 102.781V76.5072H96.8696V102.781H63.1163V114.863C63.1163 116.608 61.6972 118.027 59.9521 118.027C58.2071 118.027 56.788 116.608 56.788 114.863V48.8908C56.788 47.731 56.5547 46.5893 55.9856 45.8221H90.7328V42.9453H50.8422C47.5113 42.9453 44.7053 45.559 44.7053 48.8908V79.7669H35.5V99.5206C35.5 102.852 38.306 105.658 41.6371 105.658H53.9108V114.863C53.9108 118.194 56.7168 121 60.0479 121H103.007C106.338 121 108.952 118.194 108.952 114.863V102.78L99.7467 102.781ZM44.7055 99.5206C44.7055 101.266 43.2856 102.685 41.5412 102.685C39.7961 102.685 38.3772 101.266 38.3772 99.5208V82.6439H44.7055V99.5206ZM53.9108 102.78H46.7803C47.3492 101.822 47.5825 100.68 47.5825 99.5208V48.8908C47.5825 47.1455 49.0016 45.7257 50.7467 45.7257C52.4911 45.7257 53.9108 47.1455 53.9108 48.8908V102.78ZM106.075 114.863C106.075 116.608 104.752 118.123 103.007 118.123H65.1909C65.76 117.164 65.9931 116.023 65.9931 114.863V105.658H106.075L106.075 114.863Z" fill="#F6F6F6"/>
<path d="M61.582 94.9178H92.0753V53.6849H61.582V94.9178ZM70.5959 64.2331H86.1299V61.3559H70.5959V56.5617H89.1983V69.0271H70.5959V64.2331ZM70.5959 71.9043H89.1983V76.6984H70.5959V71.9043ZM70.5959 79.5755H89.1983V84.3696H70.5959V79.5755ZM70.5959 87.2467H89.1983V92.0408H70.5959V87.2467ZM64.4591 56.5619H67.7189V61.3561H64.4591V56.5619ZM64.4591 64.2331H67.7189V69.0273H64.4591V64.2331ZM64.4591 71.9043H67.7189V76.6984H64.4591V71.9043ZM64.4591 79.5755H67.7189V84.3696H64.4591V79.5755ZM64.4591 87.2467H67.7189V92.0408H64.4591V87.2467ZM102.815 69.4309V23H93.8011V32.0141H99.9379V68.2398L98.3081 69.8698L96.6781 68.2398V35.0825H93.8011V69.4309L98.3081 73.938L102.815 69.4309ZM96.6781 29.1369V25.8772H99.9379V29.1369H96.6781Z" fill="#F6F6F6"/>
</g>
<defs>
<clipPath id="clip0_2008_25180">
<rect width="75" height="98" fill="white" transform="translate(35.5 23)"/>
</clipPath>
</defs>
</svg>
