<svg width="56" height="56" viewBox="0 0 56 56" fill="none" xmlns="http://www.w3.org/2000/svg">
<path d="M51.3683 37.3658C52.182 34.8917 52.5944 32.3094 52.5944 29.6898C52.5944 26.2522 51.8955 22.9228 50.5173 19.7958C50.3227 19.3539 50.5228 18.8366 50.9647 18.6419C51.4066 18.4472 51.9239 18.6473 52.1186 19.0892C53.5952 22.4405 54.3444 26.0061 54.3444 29.6888C54.3444 32.4942 53.9025 35.2603 53.0308 37.9116C52.9582 38.132 52.8011 38.3146 52.5939 38.4192C52.3868 38.5238 52.1466 38.5418 51.9261 38.4694C51.4678 38.3195 51.2173 37.8252 51.3683 37.3658ZM3.80328 38.5142C3.89406 38.5142 3.98703 38.5 4.07781 38.4694C4.53719 38.3184 4.78547 37.823 4.63453 37.3647C3.81969 34.895 3.40625 32.3127 3.40625 29.6898C3.40625 26.25 4.10625 22.9217 5.48656 19.7969C5.53312 19.6918 5.55848 19.5785 5.56118 19.4636C5.56389 19.3486 5.54389 19.2343 5.50234 19.1271C5.46078 19.0199 5.39848 18.922 5.31901 18.8389C5.23954 18.7558 5.14446 18.6892 5.03922 18.643C4.59734 18.4483 4.08 18.6473 3.88531 19.0903C2.40656 22.4383 1.65625 26.0039 1.65625 29.6898C1.65625 32.4986 2.09922 35.2658 2.97312 37.9137C3.03089 38.0884 3.14217 38.2403 3.29119 38.3481C3.4402 38.4559 3.61937 38.514 3.80328 38.5142ZM17.7738 7.26578C17.8908 7.26578 18.0111 7.24172 18.1248 7.19141C21.2475 5.82094 24.5703 5.12641 28.0014 5.12641C31.4303 5.12641 34.7531 5.82094 37.8791 7.19141C37.9843 7.23762 38.0975 7.26265 38.2124 7.26507C38.3273 7.26749 38.4416 7.24725 38.5486 7.2055C38.6557 7.16375 38.7534 7.10132 38.8364 7.02177C38.9193 6.94222 38.9857 6.84711 39.0319 6.74187C39.1248 6.52936 39.1297 6.28864 39.0455 6.07252C38.9612 5.85641 38.7946 5.68254 38.5823 5.58906C35.2333 4.12016 31.6742 3.37641 28.0025 3.37641C24.3275 3.37641 20.7673 4.12125 17.4227 5.58906C16.9797 5.78375 16.7784 6.3 16.9731 6.74187C17.1164 7.07 17.4369 7.26578 17.7738 7.26578ZM35.5625 53.0677C33.1223 53.8519 30.5783 54.25 28.0014 54.25C25.4213 54.25 22.8772 53.8519 20.4403 53.0677C19.9809 52.92 19.4877 53.1727 19.3389 53.632C19.1902 54.0914 19.4439 54.5847 19.9033 54.7334C22.5141 55.5734 25.2375 56 28.0003 56C30.7598 56 33.4833 55.5734 36.0973 54.7334C36.5578 54.5858 36.8105 54.0925 36.6628 53.632C36.5163 53.1727 36.023 52.92 35.5625 53.0677ZM40.8978 13.1458V16.1623C40.8978 16.6458 41.2894 17.0373 41.7728 17.0373C42.2562 17.0373 42.6478 16.6458 42.6478 16.1623V13.1458C42.6478 12.6623 42.2562 12.2708 41.7728 12.2708C41.2894 12.2708 40.8978 12.6634 40.8978 13.1458ZM50.8148 13.1458C50.8148 12.6623 50.4233 12.2708 49.9398 12.2708C49.4564 12.2708 49.0648 12.6623 49.0648 13.1458V16.1623C49.0648 16.6458 49.4564 17.0373 49.9398 17.0373C50.4233 17.0373 50.8148 16.6458 50.8148 16.1623V13.1458ZM42.2573 6.83594C41.7728 6.13266 41.4873 5.28281 41.4873 4.36625C41.4873 1.95891 43.4462 0 45.8547 0C48.2642 0 50.2253 1.95891 50.2253 4.36625C50.2253 5.28281 49.9398 6.13375 49.4542 6.83703C51.7598 7.41781 53.4727 9.50578 53.4727 11.9722V16.1634C53.4727 16.6469 53.0811 17.0384 52.5977 17.0384C52.1142 17.0384 51.7227 16.6469 51.7227 16.1634V11.9722C51.7227 10.0341 50.1411 8.44375 48.1975 8.42625H47.4548C46.9594 8.62203 46.4202 8.73031 45.8558 8.73031C45.2914 8.73031 44.7533 8.62203 44.2578 8.42625H43.5097C41.5737 8.44375 39.9922 10.0341 39.9922 11.9722V16.1634C39.9922 16.6469 39.6006 17.0384 39.1172 17.0384C38.6338 17.0384 38.2422 16.6469 38.2422 16.1634V11.9722C38.24 9.50469 39.955 7.41563 42.2573 6.83594ZM43.2373 4.36625C43.2373 5.80672 44.4109 6.97922 45.8547 6.97922C47.2995 6.97922 48.4753 5.80672 48.4753 4.36625C48.4753 2.92359 47.2995 1.75 45.8547 1.75C44.4109 1.75 43.2373 2.92359 43.2373 4.36625ZM14.2311 12.2708C13.7477 12.2708 13.3561 12.6623 13.3561 13.1458V16.1623C13.3561 16.6458 13.7477 17.0373 14.2311 17.0373C14.7145 17.0373 15.1061 16.6458 15.1061 16.1623V13.1458C15.1061 12.6634 14.7145 12.2708 14.2311 12.2708ZM5.18578 13.1458V16.1623C5.18578 16.6458 5.57734 17.0373 6.06078 17.0373C6.54422 17.0373 6.93578 16.6458 6.93578 16.1623V13.1458C6.93578 12.6623 6.54422 12.2708 6.06078 12.2708C5.57734 12.2708 5.18578 12.6634 5.18578 13.1458ZM2.52797 16.1623V11.9711C2.52797 9.50359 4.24406 7.41344 6.5475 6.83484C6.04598 6.10939 5.77774 5.24818 5.77859 4.36625C5.77859 1.95891 7.7375 0 10.1459 0C12.5544 0 14.5133 1.95891 14.5133 4.36625C14.5133 5.28281 14.2289 6.13375 13.7433 6.83594C16.0489 7.41563 17.7628 9.50469 17.7628 11.9711V16.1623C17.7628 16.6458 17.3712 17.0373 16.8878 17.0373C16.4044 17.0373 16.0128 16.6458 16.0128 16.1623V11.9711C16.0128 10.033 14.4312 8.44266 12.4877 8.42516H11.7439C11.2484 8.62094 10.7092 8.72922 10.1459 8.72922C9.58266 8.72922 9.04344 8.62094 8.54797 8.42516H7.79656C5.86062 8.44266 4.27906 10.033 4.27906 11.9711V16.1623C4.27906 16.6458 3.8875 17.0373 3.40406 17.0373C2.92063 17.0373 2.52797 16.6458 2.52797 16.1623ZM7.52859 4.36625C7.52859 5.80672 8.70219 6.97922 10.1459 6.97922C11.5886 6.97922 12.7633 5.80672 12.7633 4.36625C12.7633 2.92359 11.5897 1.75 10.1459 1.75C8.70328 1.75 7.52859 2.92359 7.52859 4.36625ZM49.9398 47.938C49.4564 47.938 49.0648 48.3295 49.0648 48.813V51.8262C49.0648 52.3097 49.4564 52.7012 49.9398 52.7012C50.4233 52.7012 50.8148 52.3097 50.8148 51.8262V48.813C50.8148 48.3295 50.4233 47.938 49.9398 47.938ZM41.7728 47.938C41.2894 47.938 40.8978 48.3295 40.8978 48.813V51.8262C40.8978 52.3097 41.2894 52.7012 41.7728 52.7012C42.2562 52.7012 42.6478 52.3097 42.6478 51.8262V48.813C42.6478 48.3295 42.2562 47.938 41.7728 47.938ZM53.4727 47.6372V51.8262C53.4727 52.3097 53.0811 52.7012 52.5977 52.7012C52.1142 52.7012 51.7227 52.3097 51.7227 51.8262V47.6372C51.7227 45.6969 50.1411 44.1055 48.1986 44.0912H47.4537C46.9583 44.287 46.4191 44.3953 45.8558 44.3953C45.2925 44.3953 44.7533 44.287 44.2589 44.0912H43.5097C41.5727 44.1066 39.9922 45.6969 39.9922 47.6372V51.8262C39.9922 52.3097 39.6006 52.7012 39.1172 52.7012C38.6338 52.7012 38.2422 52.3097 38.2422 51.8262V47.6372C38.2422 45.1675 39.9572 43.0784 42.2595 42.5009C41.775 41.7977 41.4895 40.9467 41.4895 40.0291C41.4895 37.6228 43.4484 35.6661 45.8569 35.6661C48.2664 35.6661 50.2275 37.6228 50.2275 40.0291C50.2275 40.9467 49.942 41.7977 49.4564 42.5009C51.7588 43.0806 53.4727 45.1686 53.4727 47.6372ZM45.8547 42.6453C47.2995 42.6453 48.4753 41.4717 48.4753 40.0291C48.4753 38.5886 47.2995 37.4161 45.8547 37.4161C44.4109 37.4161 43.2373 38.5886 43.2373 40.0291C43.2373 41.4717 44.4109 42.6453 45.8547 42.6453ZM6.06078 47.938C5.57734 47.938 5.18578 48.3295 5.18578 48.813V51.8262C5.18578 52.3097 5.57734 52.7012 6.06078 52.7012C6.54422 52.7012 6.93578 52.3097 6.93578 51.8262V48.813C6.93578 48.3295 6.54422 47.938 6.06078 47.938ZM14.2311 47.938C13.7477 47.938 13.3561 48.3295 13.3561 48.813V51.8262C13.3561 52.3097 13.7477 52.7012 14.2311 52.7012C14.7145 52.7012 15.1061 52.3097 15.1061 51.8262V48.813C15.1061 48.3295 14.7145 47.938 14.2311 47.938ZM17.7639 47.6372V51.8262C17.7639 52.3097 17.3723 52.7012 16.8889 52.7012C16.4055 52.7012 16.0139 52.3097 16.0139 51.8262V47.6372C16.0139 45.6969 14.4334 44.1066 12.4898 44.0912H11.7439C11.2484 44.287 10.7103 44.3953 10.147 44.3953C9.58375 44.3953 9.04453 44.287 8.55016 44.0912H7.79766C5.86063 44.1066 4.28016 45.6969 4.28016 47.6372V51.8262C4.28016 52.3097 3.88859 52.7012 3.40516 52.7012C2.92172 52.7012 2.53016 52.3097 2.53016 51.8262V47.6372C2.53016 45.1664 4.24625 43.0763 6.54969 42.4998C6.04814 41.7736 5.77992 40.9117 5.78078 40.0291C5.78078 37.6228 7.73969 35.6661 10.1481 35.6661C12.5566 35.6661 14.5155 37.6228 14.5155 40.0291C14.5155 40.9456 14.2311 41.7977 13.7455 42.5009C16.0489 43.0795 17.7639 45.1686 17.7639 47.6372ZM10.1459 42.6453C11.5886 42.6453 12.7633 41.4717 12.7633 40.0291C12.7633 38.5886 11.5897 37.4161 10.1459 37.4161C8.70219 37.4161 7.52859 38.5886 7.52859 40.0291C7.52859 41.4717 8.70328 42.6453 10.1459 42.6453ZM38.7398 38.4639C38.5441 38.4639 38.3505 38.3983 38.1919 38.2714L34.4305 35.2548H24.7486C23.3672 35.2548 22.2439 34.1327 22.2439 32.7523V31.9659H21.5702L17.8088 34.9858C17.6533 35.1104 17.46 35.1783 17.2608 35.1783C17.1317 35.1783 17.0027 35.1498 16.8823 35.0919C16.7337 35.0206 16.6082 34.9087 16.5203 34.7692C16.4325 34.6297 16.3858 34.4682 16.3858 34.3033V31.9659H15.7273C14.3459 31.9659 13.2227 30.8438 13.2227 29.4634V21.1137C13.2227 19.7334 14.3459 18.6112 15.7273 18.6112H31.252C32.6334 18.6112 33.7567 19.7334 33.7567 21.1137V21.9002H40.2733C41.6547 21.9002 42.778 23.0223 42.778 24.4027V32.7523C42.778 34.1327 41.6547 35.2548 40.2733 35.2548H39.6148V37.5889C39.6148 37.9258 39.4223 38.232 39.1183 38.3775C38.998 38.4366 38.8678 38.4639 38.7398 38.4639ZM22.2439 30.2159V24.4037C22.2439 23.0234 23.3672 21.9013 24.7486 21.9013H32.0067V21.1148C32.0067 20.7003 31.6677 20.3623 31.252 20.3623H15.7273C15.3117 20.3623 14.9727 20.7003 14.9727 21.1148V29.4645C14.9727 29.8725 15.3183 30.217 15.7273 30.217H17.2608C17.7442 30.217 18.1358 30.6086 18.1358 31.092V32.48L20.7148 30.4106C20.8703 30.286 21.0636 30.2181 21.2628 30.2181H22.2439V30.2159ZM38.7398 33.5059H40.2733C40.6823 33.5059 41.028 33.1614 41.028 32.7534V24.4037C41.028 23.9892 40.6889 23.6513 40.2733 23.6513H24.7486C24.333 23.6513 23.9939 23.9892 23.9939 24.4037V32.7534C23.9939 33.1614 24.3395 33.5059 24.7486 33.5059H34.7378C34.9369 33.5059 35.1305 33.5737 35.2847 33.6984L37.8648 35.7656V34.3798C37.8648 33.8975 38.2564 33.5059 38.7398 33.5059ZM37.8364 29.1966H27.1888C26.7053 29.1966 26.3138 29.5881 26.3138 30.0716C26.3138 30.555 26.7053 30.9466 27.1888 30.9466H37.8364C38.3198 30.9466 38.7114 30.555 38.7114 30.0716C38.7114 29.5881 38.3198 29.1966 37.8364 29.1966ZM27.1888 27.9606H34.4338C34.9172 27.9606 35.3088 27.5691 35.3088 27.0856C35.3088 26.6022 34.9172 26.2106 34.4338 26.2106H27.1888C26.7053 26.2106 26.3138 26.6022 26.3138 27.0856C26.3138 27.5691 26.7053 27.9606 27.1888 27.9606ZM37.8375 26.2106C37.353 26.2106 36.9625 26.6022 36.9625 27.0856C36.9625 27.5691 37.3552 27.9606 37.8375 27.9606C38.3209 27.9606 38.7125 27.5691 38.7125 27.0856C38.7125 26.6022 38.3209 26.2106 37.8375 26.2106Z" fill="#F6F6F6"/>
</svg>
