<svg width="408" height="103" viewBox="0 0 408 103" fill="none" xmlns="http://www.w3.org/2000/svg">
<path d="M225.136 62.3921C225.31 61.8696 225.591 61.8654 225.77 62.4029L232.133 81.489C232.309 82.0175 232.013 82.3206 231.495 82.1725L212.408 76.7193C211.88 76.5683 211.862 76.2637 212.364 76.0404L220.452 72.4459L228.451 78.4459L222.452 70.446L225.136 62.3921Z" fill="white"/>
<path d="M43 31.9998L42.606 31.692L43 31.9998ZM201 49.9998L200.605 50.3064L201 49.9998ZM405.986 31.884C405.922 31.6153 405.653 31.4494 405.384 31.5134L401.007 32.5557C400.738 32.6196 400.572 32.8893 400.636 33.1579C400.7 33.4265 400.97 33.5924 401.238 33.5285L405.129 32.602L406.056 36.4932C406.12 36.7619 406.389 36.9278 406.658 36.8638C406.927 36.7999 407.093 36.5302 407.029 36.2616L405.986 31.884ZM0.888971 88.8141C1.74713 87.7516 2.66476 86.5931 3.6331 85.3529L2.84489 84.7375C1.87914 85.9744 0.965001 87.1284 0.111029 88.1857L0.888971 88.8141ZM9.01721 78.3241C10.7107 76.0812 12.4873 73.7051 14.3168 71.2448L13.5143 70.6481C11.6858 73.1071 9.9107 75.4812 8.21914 77.7215L9.01721 78.3241ZM19.5777 64.1428C21.3146 61.7916 23.0725 59.408 24.8277 57.0303L24.0231 56.4364C22.2676 58.8147 20.5102 61.1976 18.7734 63.5486L19.5777 64.1428ZM30.0819 49.9252C31.8786 47.5022 33.6478 45.1257 35.3636 42.8375L34.5636 42.2376C32.8463 44.5276 31.0761 46.9057 29.2786 49.3296L30.0819 49.9252ZM40.6967 35.795C41.6262 34.5827 42.527 33.4173 43.394 32.3076L42.606 31.692C41.7369 32.8045 40.8341 33.9723 39.9031 35.1866L40.6967 35.795ZM43.394 32.3076C44.2373 31.2283 45.1201 30.168 46.0408 29.1283L45.2922 28.4653C44.3581 29.5201 43.4621 30.5961 42.606 31.692L43.394 32.3076ZM51.8787 23.265C53.9081 21.446 56.0636 19.7135 58.3335 18.0785L57.7491 17.2671C55.451 18.9224 53.2677 20.6771 51.2113 22.5204L51.8787 23.265ZM65.2942 13.5808C67.6618 12.2126 70.1229 10.9427 72.6675 9.78076L72.2521 8.87112C69.6788 10.0462 67.1893 11.3307 64.7939 12.715L65.2942 13.5808ZM80.3555 6.69233C82.939 5.78998 85.5897 4.99502 88.2987 4.31569L88.0555 3.34572C85.3173 4.03239 82.6377 4.83599 80.0258 5.74825L80.3555 6.69233ZM96.4297 2.65821C99.1313 2.23149 101.878 1.91874 104.663 1.72725L104.594 0.729608C101.78 0.923123 99.0041 1.23918 96.2737 1.67046L96.4297 2.65821ZM112.96 1.52066C115.692 1.57186 118.451 1.74095 121.23 2.03431L121.335 1.03984C118.527 0.743428 115.739 0.572575 112.979 0.520832L112.96 1.52066ZM129.443 3.25872C132.119 3.77519 134.808 4.40987 137.503 5.16832L137.774 4.20571C135.052 3.43969 132.336 2.79857 129.632 2.27684L129.443 3.25872ZM145.398 7.74432C147.949 8.69325 150.501 9.75735 153.048 10.9413L153.469 10.0345C150.898 8.83944 148.322 7.76519 145.746 6.80706L145.398 7.74432ZM160.429 14.7212C162.803 16.0522 165.169 17.4925 167.523 19.046L168.074 18.2113C165.7 16.6447 163.313 15.1918 160.918 13.8489L160.429 14.7212ZM174.3 23.8632C176.456 25.5088 178.598 27.2549 180.723 29.1045L181.379 28.3502C179.239 26.4867 177.08 24.7271 174.907 23.0683L174.3 23.8632ZM186.813 34.7419C188.75 36.6453 190.669 38.6404 192.568 40.7297L193.308 40.057C191.397 37.9541 189.465 35.9455 187.514 34.0286L186.813 34.7419ZM197.992 47.0249C198.868 48.0972 199.739 49.1909 200.605 50.3064L201.395 49.6932C200.524 48.5712 199.648 47.4709 198.766 46.3921L197.992 47.0249ZM200.605 50.3064C201.478 51.4314 202.353 52.5355 203.229 53.6191L204.007 52.9903C203.135 51.9119 202.264 50.813 201.395 49.6932L200.605 50.3064ZM208.517 59.8905C210.395 62.0241 212.279 64.0668 214.167 66.021L214.886 65.3261C213.009 63.3833 211.136 61.3521 209.268 59.2299L208.517 59.8905ZM220.084 71.8423C222.145 73.7675 224.211 75.5915 226.28 77.3174L226.921 76.5495C224.866 74.8358 222.814 73.0242 220.766 71.1115L220.084 71.8423ZM232.78 82.4124C235.051 84.0806 237.324 85.6354 239.599 87.081L240.136 86.237C237.88 84.8037 235.625 83.2616 233.372 81.6065L232.78 82.4124ZM246.773 91.2818C249.262 92.6176 251.751 93.8278 254.237 94.9181L254.639 94.0023C252.177 92.9228 249.712 91.7241 247.246 90.4007L246.773 91.2818ZM261.969 97.9322C264.629 98.8416 267.284 99.6192 269.929 100.272L270.169 99.3009C267.551 98.6553 264.925 97.8859 262.292 96.9859L261.969 97.9322ZM278.065 101.897C280.829 102.321 283.58 102.614 286.314 102.785L286.377 101.787C283.671 101.618 280.95 101.328 278.217 100.908L278.065 101.897ZM294.616 102.933C297.398 102.86 300.16 102.665 302.898 102.358L302.787 101.364C300.076 101.669 297.343 101.861 294.59 101.933L294.616 102.933ZM311.1 101.095C313.82 100.564 316.513 99.9255 319.174 99.1903L318.908 98.2264C316.27 98.955 313.603 99.5872 310.908 100.114L311.1 101.095ZM327.083 96.6948C329.692 95.7694 332.265 94.7553 334.8 93.6618L334.404 92.7436C331.889 93.8287 329.336 94.8346 326.749 95.7524L327.083 96.6948ZM342.306 90.1427C344.776 88.8912 347.204 87.5687 349.586 86.1848L349.084 85.3202C346.718 86.6948 344.306 88.0081 341.854 89.2506L342.306 90.1427ZM356.634 81.8297C358.958 80.3067 361.23 78.73 363.448 77.1097L362.858 76.3022C360.654 77.9129 358.395 79.4799 356.086 80.9933L356.634 81.8297ZM370.019 72.0576C372.19 70.3037 374.299 68.514 376.34 66.6995L375.676 65.952C373.646 67.7563 371.549 69.5359 369.391 71.2798L370.019 72.0576ZM382.4 61.0573C384.408 59.0988 386.338 57.1251 388.183 55.1491L387.452 54.4666C385.617 56.4313 383.699 58.3939 381.702 60.3414L382.4 61.0573ZM393.706 48.9403C395.545 46.7666 397.276 44.6065 398.892 42.4773L398.095 41.8727C396.49 43.9875 394.77 46.1338 392.942 48.2943L393.706 48.9403ZM403.703 35.7297C404.484 34.5564 405.226 33.3993 405.926 32.2618L405.074 31.7377C404.381 32.8646 403.646 34.0115 402.871 35.1752L403.703 35.7297Z" fill="#717171"/>
</svg>
