<svg width="400" height="103" viewBox="0 0 400 103" fill="none" xmlns="http://www.w3.org/2000/svg">
<path d="M174.138 12.5867C174.298 12.0595 174.578 12.0476 174.772 12.5799L181.659 31.483C181.85 32.0064 181.563 32.3176 181.04 32.1839L161.811 27.2601C161.278 27.1237 161.252 26.8198 161.748 26.5827L169.733 22.7661L177.896 28.5428L171.677 20.7116L174.138 12.5867Z" fill="#FFBD3C"/>
<path d="M42.6605 31.8549L42.2642 31.55L42.6605 31.8549ZM197.54 49.773L197.142 50.0766L197.54 49.773ZM398.486 31.7357C398.42 31.4676 398.149 31.3035 397.881 31.3693L393.51 32.4415C393.242 32.5073 393.078 32.7781 393.144 33.0462C393.21 33.3144 393.481 33.4785 393.749 33.4127L397.634 32.4596L398.587 36.3444C398.652 36.6126 398.923 36.7767 399.191 36.7109C399.46 36.6451 399.624 36.3743 399.558 36.1061L398.486 31.7357ZM1.39132 88.4092C2.23284 87.3512 3.13269 86.1975 4.08228 84.9624L3.28951 84.3529C2.34247 85.5846 1.44606 86.7339 0.608681 87.7867L1.39132 88.4092ZM9.3607 77.9647C11.0207 75.732 12.7621 73.3668 14.5554 70.9178L13.7486 70.327C11.9563 72.7747 10.2163 75.1379 8.5582 77.368L9.3607 77.9647ZM19.7119 63.8488C21.4143 61.5086 23.1372 59.1362 24.8574 56.7696L24.0486 56.1816C22.3279 58.5488 20.6055 60.9205 18.9032 63.2606L19.7119 63.8488ZM30.0072 49.6977C31.7684 47.2859 33.5025 44.9204 35.1843 42.6427L34.3798 42.0487C32.6966 44.3282 30.9614 46.6953 29.1996 49.108L30.0072 49.6977ZM40.4123 35.6319C41.3235 34.4249 42.2068 33.2646 43.0568 32.1598L42.2642 31.55C41.4121 32.6576 40.527 33.8204 39.6142 35.0294L40.4123 35.6319ZM43.0568 32.1598C43.879 31.0911 44.7395 30.0412 45.6368 29.0116L44.8829 28.3546C43.9724 29.3993 43.099 30.4649 42.2642 31.55L43.0568 32.1598ZM51.3331 23.1955C53.3164 21.3875 55.4229 19.6653 57.6411 18.0396L57.05 17.233C54.8037 18.8793 52.6696 20.624 50.6595 22.4565L51.3331 23.1955ZM64.454 13.5601C66.7743 12.1953 69.1865 10.9286 71.6807 9.76933L71.2592 8.8625C68.7361 10.0353 66.2953 11.3169 63.947 12.6981L64.454 13.5601ZM79.2252 6.68465C81.7629 5.78253 84.367 4.98779 87.0285 4.3087L86.7812 3.33975C84.0901 4.02641 81.4568 4.83006 78.8902 5.74241L79.2252 6.68465ZM95.0218 2.65137C97.6789 2.22467 100.381 1.91223 103.12 1.72135L103.051 0.723769C100.281 0.916735 97.5497 1.23261 94.8632 1.66401L95.0218 2.65137ZM111.283 1.51752C113.97 1.56995 116.684 1.74059 119.418 2.03587L119.525 1.04165C116.762 0.743199 114.018 0.570712 111.302 0.517707L111.283 1.51752ZM127.492 3.26616C130.123 3.78455 132.765 4.42129 135.414 5.18196L135.69 4.22081C133.014 3.4523 130.344 2.80889 127.686 2.28503L127.492 3.26616ZM143.167 7.76294C145.669 8.71215 148.171 9.77621 150.669 10.9598L151.097 10.0561C148.575 8.86117 146.049 7.78666 143.522 6.82797L143.167 7.76294ZM157.903 14.7355C160.227 16.0634 162.544 17.5 164.848 19.0491L165.406 18.2191C163.082 16.6567 160.745 15.2072 158.399 13.8671L157.903 14.7355ZM171.473 23.8438C173.579 25.4805 175.672 27.2166 177.748 29.0553L178.411 28.3067C176.319 26.454 174.21 24.7042 172.086 23.0541L171.473 23.8438ZM183.693 34.6532C185.582 36.5414 187.455 38.52 189.307 40.5915L190.053 39.9249C188.188 37.8397 186.303 35.8475 184.4 33.9459L183.693 34.6532ZM194.595 46.8277C195.449 47.8894 196.298 48.9723 197.142 50.0766L197.937 49.4694C197.088 48.3585 196.233 47.2691 195.374 46.2008L194.595 46.8277ZM197.142 50.0766C197.994 51.1914 198.848 52.2857 199.703 53.3597L200.485 52.7368C199.634 51.668 198.785 50.579 197.937 49.4694L197.142 50.0766ZM204.861 59.5742C206.695 61.6918 208.535 63.7194 210.38 65.6597L211.104 64.9707C209.271 63.0419 207.441 61.0257 205.617 58.9196L204.861 59.5742ZM216.158 71.4404C218.172 73.3538 220.191 75.1669 222.214 76.883L222.861 76.1206C220.853 74.4168 218.848 72.6162 216.847 70.7154L216.158 71.4404ZM228.571 81.9541C230.796 83.618 233.024 85.1691 235.253 86.6115L235.797 85.7719C233.587 84.342 231.377 82.8039 229.17 81.1532L228.571 81.9541ZM242.285 90.8048C244.728 92.1398 247.171 93.3497 249.61 94.4397L250.018 93.5267C247.603 92.4477 245.185 91.2497 242.765 89.9272L242.285 90.8048ZM257.207 97.4566C259.823 98.3679 262.433 99.1471 265.035 99.801L265.279 98.8312C262.706 98.1845 260.124 97.4138 257.535 96.5123L257.207 97.4566ZM273.043 101.43C275.764 101.855 278.473 102.149 281.167 102.32L281.23 101.322C278.567 101.153 275.888 100.863 273.197 100.442L273.043 101.43ZM289.344 102.467C292.084 102.392 294.804 102.196 297.501 101.887L297.387 100.893C294.718 101.2 292.027 101.394 289.317 101.467L289.344 102.467ZM305.575 100.617C308.252 100.082 310.901 99.4414 313.519 98.7033L313.248 97.7408C310.654 98.4721 308.03 99.1069 305.38 99.636L305.575 100.617ZM321.295 96.2001C323.858 95.2728 326.386 94.2569 328.876 93.1617L328.473 92.2464C326.003 93.3328 323.496 94.3404 320.955 95.2598L321.295 96.2001ZM336.242 89.6407C338.665 88.3897 341.046 87.0681 343.381 85.6855L342.872 84.825C340.552 86.1982 338.188 87.5103 335.783 88.7521L336.242 89.6407ZM350.288 81.3377C352.563 79.8189 354.788 78.2469 356.959 76.6318L356.362 75.8295C354.204 77.4348 351.993 78.9969 349.733 80.506L350.288 81.3377ZM363.387 71.6002C365.509 69.8549 367.57 68.0743 369.566 66.2693L368.895 65.5276C366.911 67.3223 364.862 69.0927 362.752 70.8279L363.387 71.6002ZM375.485 60.6612C377.446 58.7151 379.33 56.7541 381.133 54.791L380.396 54.1148C378.604 56.0665 376.731 58.0163 374.781 59.9514L375.485 60.6612ZM386.519 48.6321C388.312 46.4777 389.999 44.3369 391.574 42.2269L390.773 41.6286C389.209 43.7243 387.532 45.8513 385.751 47.9924L386.519 48.6321ZM396.263 35.5444C397.024 34.3839 397.746 33.2393 398.428 32.114L397.572 31.5957C396.897 32.7105 396.181 33.845 395.426 34.996L396.263 35.5444Z" fill="#717171"/>
</svg>
