<svg width="59" height="40" viewBox="0 0 59 40" fill="none" xmlns="http://www.w3.org/2000/svg">
<path fill-rule="evenodd" clip-rule="evenodd" d="M29.5 36.7023C35.3784 33.3018 39.3333 26.9461 39.3333 19.6667C39.3333 12.3872 35.3784 6.03148 29.5 2.63103C32.3927 0.957702 35.7511 0 39.3333 0C50.1949 0 58.9999 8.80507 58.9999 19.6667C58.9999 30.5283 50.1949 39.3333 39.3333 39.3333C35.7511 39.3333 32.3927 38.3756 29.5 36.7023ZM29.5 36.7023C26.6073 38.3756 23.2488 39.3333 19.6667 39.3333C8.80507 39.3333 0 30.5283 0 19.6667C0 8.80507 8.80507 0 19.6667 0C23.2488 0 26.6073 0.957702 29.5 2.63103C23.6216 6.03148 19.6666 12.3872 19.6666 19.6667C19.6666 26.9461 23.6216 33.3018 29.5 36.7023Z" fill="#F2F2F7"/>
</svg>
